<svg xmlns="http://www.w3.org/2000/svg" id="Layer_1" data-name="Layer 1" viewBox="0 0 1797.2 698.3"><defs><style> .cls-1 { fill: #231f20; } .cls-1, .cls-2 { stroke-width: 0px; } .cls-2 { fill: #3ab54a; } </style></defs><g><path class="cls-2" d="M328.9,290.1c0-29.6-5-56.4-15-80.4-10-24-25.4-43.1-46.3-57.2-20.9-14.2-46.5-21.3-77-21.3s-58.4,6.6-81.3,19.7c-22.9,13.1-40.6,31.8-52.9,56-12.3,24.2-18.5,52.3-18.5,84.4,0,49.6,14.9,88.5,44.7,116.7,29.8,28.2,73.5,42.2,131.1,42.2s45.9-3.2,63.8-9.7c17.9-6.5,34.6-15.8,50-27.8l-23.8-58.8c-15.4,8.8-29.8,15.4-43.2,20-13.4,4.6-28.4,6.9-45,6.9-28.8,0-50.1-5.6-64.1-16.9-14-11.3-23-27.5-27.2-48.8h204.5v-25ZM126.9,260.7c-5,3.9-10.6,8.5-16.9,14l21.9-37.6c3.8-8.5,8.8-15.5,15-21.1,11.3-10.2,25.2-15.3,41.9-15.3s30.4,5,41,15c10.6,10,18,25,22.2,45h-125.1Z"></path><path class="cls-2" d="M806.5,157.1c-15.2-18.5-40.2-27.8-74.8-27.8s-32.3,3.6-51.9,10.9c-19.6,7.3-38.8,17.4-57.6,30.4-14.6-27.5-42.5-41.3-83.8-41.3s-32.5,3.7-52.5,11.2c-20,7.5-39.4,17.9-58.2,31.3l-13.8-32.5h-53.2v303.4h81.3v-210.2c16.7-12.1,30.2-21,40.7-26.9,10.4-5.8,21.9-8.8,34.4-8.8s22.4,5,28.5,15c6.1,10,9.1,24.8,9.1,44.4v62.2h81.3v-86.6c16.3-11.7,29.6-20.4,40.1-26.3,10.4-5.8,21.9-8.8,34.4-8.8s22.4,5,28.5,15c6.1,10,9.1,24.8,9.1,44.4v186.4h81.3v-202.7c0-36.7-7.6-64.3-22.8-82.9Z"></path><rect class="cls-2" x="554.7" y="343" width="79.7" height="99.7"></rect><path class="cls-2" d="M1549.3,370.5v-86.1h166l-14.9-67.8h-151.1v-63.1c0-5.6-2.5-10.9-6.9-14.4l-15.2-12.2h191.2c10.8,0,19.2-9.5,17.7-20.3l-7.2-53.4h-252.9v390.8h260.7l-10.9-54c-2.3-11.4-12.3-19.6-24-19.6h-152.6Z"></path><path class="cls-2" d="M1116.3,84.3c-28.6-20.6-66-30.9-112.1-30.9h-122.9v392.2h74.4v-136.7h43.3c28.8,0,55.3-4.7,79.5-14.2,24.3-9.4,43.8-24,58.6-43.5,14.7-19.6,22.1-43.6,22.1-72,0-42.7-14.3-74.3-43-94.9ZM1057.7,231.5c-13.4,10.5-31.7,15.8-54.7,15.8h-73.4s15.6-2.2,26.1-16.5v-115h46.2c25.7,0,45.3,5.3,58.5,15.8,13.3,10.6,19.8,28,19.8,52.3-1.5,21.2-9,37-22.5,47.6Z"></path><path class="cls-2" d="M1425.5,404.5c-2.5-14.3-14.9-24.8-29.4-24.9l-148.8-.7s26.5-15.2,26-48.2l1.3-277.5-74.5,16.1-1.8,375.7,234.3,1.1-7-41.7Z"></path></g><g><path class="cls-1" d="M566.4,624.9c-3.8,0-6.8-3.2-6.8-7.4s3-7.4,6.8-7.4,6.6,3.2,6.6,7.4-3,7.4-6.6,7.4Z"></path><path class="cls-1" d="M590.5,624.9c-3.8,0-6.8-3.2-6.8-7.4s3-7.4,6.8-7.4,6.6,3.2,6.6,7.4-3,7.4-6.6,7.4Z"></path><path class="cls-1" d="M614.7,624.9c-3.8,0-6.8-3.2-6.8-7.4s3-7.4,6.8-7.4,6.6,3.2,6.6,7.4-3,7.4-6.6,7.4Z"></path><path class="cls-1" d="M661.7,625.3c-17.1,0-29.8-13.2-29.8-34.1s12.2-33.8,29.8-33.8,28.9,13.4,28.9,31.4-.1,4.3-.3,6.6h-48.1c.8,13.3,9.3,20.6,19.5,20.6s14.7-5,16.9-12.1h10.8c-3.1,12-12.7,21.4-27.7,21.4ZM642.2,586.5h38c.1-12.8-8.7-19.9-19-19.9s-17.9,7.1-19,19.9Z"></path><path class="cls-1" d="M791.7,587c0-13.4-6.6-20.3-16.5-20.3s-17,7.1-17,21.2v36.2h-9.9v-37.2c0-13.4-6.6-20.3-16.5-20.3s-17,7.1-17,21.2v36.2h-10v-65.7h10v9.5c4-7,11.1-10.7,19-10.7s18.1,4.8,22.1,14.6c3.5-9.5,12.1-14.6,21.3-14.6,13.7,0,24.4,9.4,24.4,28.2v38.8h-9.9v-37.2Z"></path><path class="cls-1" d="M851.5,557.4c16.1,0,28.5,13.2,28.5,33.7s-12.4,34.2-28.5,34.2-18.8-6.5-22.5-13.2v43.3h-10v-96.9h10v12.1c3.6-7,11.5-13.2,22.5-13.2ZM849.4,566.9c-10.9,0-20.4,9.1-20.4,24.4s9.6,24.5,20.4,24.5,20.4-9.1,20.4-24.6-9.3-24.2-20.4-24.2Z"></path><path class="cls-1" d="M920.6,625.3c-17,0-30-13.2-30-34.1s13.4-33.8,30.4-33.8,30.4,13.1,30.4,33.8-13.7,34.1-30.9,34.1ZM920.6,615.7c10.4,0,20.6-7.8,20.6-24.5s-10-24.4-20.3-24.4-20.1,7.8-20.1,24.4,9.3,24.5,19.8,24.5Z"></path><path class="cls-1" d="M958.6,558.5h10.2l13.8,55.2,14.9-55.2h10.2l14.6,55.3,13.6-55.3h9.9l-18.8,65.7h-10.3l-14.5-52.2-14.5,52.2h-10.3l-18.9-65.7Z"></path><path class="cls-1" d="M1082.9,625.3c-17.1,0-29.8-13.2-29.8-34.1s12.2-33.8,29.8-33.8,28.9,13.4,28.9,31.4-.1,4.3-.3,6.6h-48.1c.8,13.3,9.3,20.6,19.5,20.6s14.7-5,16.9-12.1h10.8c-3.1,12-12.7,21.4-27.7,21.4ZM1063.4,586.5h38c.1-12.8-8.7-19.9-19-19.9s-17.9,7.1-19,19.9Z"></path><path class="cls-1" d="M1136,624.2h-10v-65.7h10v10.7c3.4-7.3,9.9-11.9,19.4-11.9v11.3h-2.6c-9.6,0-16.8,4.7-16.8,19.9v35.8Z"></path><path class="cls-1" d="M1166.4,540.4c0-4.2,3-7.4,6.8-7.4s6.6,3.2,6.6,7.4-3,7.4-6.6,7.4-6.8-3.2-6.8-7.4ZM1168.1,558.5h10v65.7h-10v-65.7Z"></path><path class="cls-1" d="M1240.2,587c0-13.4-6.7-20.3-16.8-20.3s-17.2,7-17.2,21.1v36.4h-10v-65.7h10v9.4c4-6.8,11.2-10.6,19.3-10.6,13.9,0,24.6,9.4,24.6,28.2v38.8h-9.9v-37.2Z"></path><path class="cls-1" d="M1292.4,557.4c11,0,18.9,6,22.4,13.1v-12h10.1v67.2c0,18.1-11.1,31-28.8,31s-27.1-8.8-29.1-22.8h9.9c2.2,7.9,9.3,13.3,19.2,13.3s18.7-7.4,18.7-21.5v-13.8c-3.6,7.1-11.4,13.4-22.4,13.4-16.1,0-28.5-13.8-28.5-34.2s12.4-33.7,28.5-33.7ZM1294.3,566.9c-11,0-20.3,8.8-20.3,24.2s9.3,24.6,20.3,24.6,20.4-9,20.4-24.5-9.4-24.4-20.4-24.4Z"></path><path class="cls-1" d="M1425.4,579c-1.9,3.9-5,7.1-9.1,9.5-4.1,2.4-9.4,3.6-15.6,3.6h-12.8v32.2h-15.4v-83.8h28.2c5.9,0,11,1.1,15.2,3.4,4.2,2.2,7.3,5.3,9.4,9.2,2.1,3.9,3.1,8.4,3.1,13.3s-1,8.7-2.9,12.6ZM1409.4,575.3c2-2.1,3.1-5.1,3.1-8.9,0-8.2-4.2-12.2-12.5-12.2h-12.2v24.4h12.2c4.2,0,7.4-1.1,9.4-3.2Z"></path><path class="cls-1" d="M1496.4,596h-44.5c.4,4.8,1.9,8.6,4.6,11.3,2.7,2.7,6,4.1,10,4.1,5.7,0,9.8-2.7,12.2-8h16.6c-1.8,6.4-5.1,11.7-10.1,15.8-5,4.1-11.1,6.2-18.3,6.2s-11.1-1.4-15.8-4.3c-4.6-2.8-8.3-6.9-10.9-12.1-2.6-5.2-3.9-11.2-3.9-18s1.3-12.9,3.8-18.1c2.6-5.2,6.1-9.2,10.8-12,4.6-2.8,9.9-4.2,15.9-4.2s11,1.4,15.5,4.1c4.6,2.7,8.1,6.6,10.7,11.6,2.5,5,3.8,10.7,3.8,17.2s-.1,4.6-.4,6.5ZM1480.9,584.7c0-4.3-1.5-7.8-4.3-10.4-2.8-2.6-6.2-3.9-10.2-3.9s-7,1.3-9.6,3.8c-2.6,2.5-4.2,6-4.8,10.5h28.9Z"></path><path class="cls-1" d="M1520.3,621c-4.7-2.8-8.4-6.9-11-12.1-2.7-5.2-4-11.2-4-18s1.4-12.8,4.1-18c2.7-5.2,6.5-9.2,11.3-12.1,4.8-2.8,10.1-4.3,15.9-4.3s11.2,1.4,15.9,4.3c4.8,2.8,8.5,6.9,11.3,12.1,2.7,5.2,4.1,11.2,4.1,18s-1.4,12.8-4.2,18c-2.8,5.2-6.6,9.2-11.4,12.1-4.8,2.8-10.2,4.3-16.1,4.3s-11.1-1.4-15.8-4.3ZM1544,608.4c2.5-1.5,4.4-3.7,5.9-6.7,1.5-3,2.2-6.6,2.2-10.8,0-6.3-1.5-11.2-4.6-14.6-3-3.4-6.8-5.1-11.1-5.1s-8.1,1.7-11,5.1c-3,3.4-4.4,8.3-4.4,14.6s1.4,11.2,4.3,14.6c2.9,3.4,6.5,5.1,10.9,5.1s5.4-.7,7.9-2.2Z"></path><path class="cls-1" d="M1603.8,559.7c3.5-2,7.4-3.1,11.9-3.1s9.9,1.4,14.1,4.2c4.2,2.8,7.5,6.8,10,11.9,2.5,5.2,3.7,11.1,3.7,17.9s-1.2,12.8-3.7,18.1c-2.5,5.2-5.8,9.3-10,12.2-4.2,2.9-8.9,4.3-14.1,4.3s-8.4-1-11.8-3c-3.4-2-6.2-4.5-8.3-7.6v41.2h-15.4v-98.1h15.4v9.6c2-3,4.7-5.6,8.2-7.6ZM1625.6,580.4c-1.5-2.9-3.5-5.1-5.9-6.7-2.5-1.5-5.1-2.3-8-2.3s-5.4.8-7.9,2.3c-2.5,1.6-4.4,3.8-5.9,6.8-1.5,3-2.3,6.4-2.3,10.4s.7,7.5,2.3,10.4c1.5,3,3.5,5.2,5.9,6.8,2.5,1.6,5.1,2.3,7.9,2.3s5.5-.8,8-2.4c2.5-1.6,4.4-3.9,5.9-6.8,1.5-3,2.3-6.5,2.3-10.6s-.8-7.5-2.3-10.4Z"></path><path class="cls-1" d="M1671.2,535.4v88.8h-15.4v-88.8h15.4Z"></path><path class="cls-1" d="M1743.5,596h-44.5c.4,4.8,1.9,8.6,4.6,11.3,2.7,2.7,6,4.1,10,4.1,5.7,0,9.8-2.7,12.2-8h16.6c-1.8,6.4-5.1,11.7-10.1,15.8-5,4.1-11.1,6.2-18.3,6.2s-11.1-1.4-15.8-4.3c-4.6-2.8-8.3-6.9-10.9-12.1-2.6-5.2-3.9-11.2-3.9-18s1.3-12.9,3.8-18.1c2.6-5.2,6.1-9.2,10.8-12,4.6-2.8,9.9-4.2,15.9-4.2s11,1.4,15.5,4.1c4.6,2.7,8.1,6.6,10.7,11.6,2.5,5,3.8,10.7,3.8,17.2s-.1,4.6-.4,6.5ZM1728.1,584.7c0-4.3-1.5-7.8-4.3-10.4-2.8-2.6-6.2-3.9-10.2-3.9s-7,1.3-9.6,3.8c-2.6,2.5-4.2,6-4.8,10.5h28.9Z"></path></g></svg>